# xmcd CD database file
#
# Track frame offsets:
#	150
#	20137
#	36845
#	55700
#	74075
#	96712
#	113570
#	133297
#	151675
#	175342
#
# Disc length: 2622 seconds
#
# Revision: 2
# Processed by: cddbd v1.5PL3 Copyright (c) Steve Scherf et al.
# Submitted via: CDex 1.50
#
DISCID=8f0a3c0a
DTITLE=THE CHECKERS - FLOWER
DYEAR=1986
DGENRE=JPop
TTITLE0=Free Way Lovers
TTITLE1=Two Kids Blues
TTITLE2=君はRock-A-Ballade
TTITLE3=Missアニーの証言
TTITLE4=One Night Angel
TTITLE5=俺たちのロカビリーナイト
TTITLE6=Long Rood
TTITLE7=悲しきアウトサイダー
TTITLE8=LADY-Mを探せ
TTITLE9=時のK-City
EXTD=YEAR: 1986
EXTT0=
EXTT1=
EXTT2=
EXTT3=
EXTT4=
EXTT5=
EXTT6=
EXTT7=
EXTT8=
EXTT9=
PLAYORDER=
